<?xml version="1.0" encoding="UTF-8"?><svg id="Layer_1" xmlns="http://www.w3.org/2000/svg" xmlns:xlink="http://www.w3.org/1999/xlink" viewBox="0 0 786.1 790.8"><defs><style>.cls-1{fill:url(#linear-gradient-2);}.cls-2{fill:url(#linear-gradient-3);}.cls-3{fill:url(#linear-gradient);}</style><linearGradient id="linear-gradient" x1="539.7" y1="500.9" x2="539.7" y2="0" gradientUnits="userSpaceOnUse"><stop offset="0" stop-color="#901809"/><stop offset="1" stop-color="#de0000"/></linearGradient><linearGradient id="linear-gradient-2" x1="133.5" y1="790.8" x2="133.5" y2="0" xlink:href="#linear-gradient"/><linearGradient id="linear-gradient-3" x1="254.9" y1="790.2" x2="254.9" y2="131.3" xlink:href="#linear-gradient"/></defs><path class="cls-3" d="M676.6,87.4H293.3c6.5-29.8,12.8-58.3,19.1-87.4h473.7c-36.5,167-72.9,333.5-109.5,500.9H336.7c6.3-28.7,12.5-57.1,18.8-85.6h247.6c24.3-108.7,48.7-217.2,73.4-327.9Z"/><path class="cls-1" d="M94.1,790.8H0C59.1,526.8,118,263.7,177.1,0h89.9c-57.7,263.8-115.2,527-172.9,790.8Z"/><path class="cls-2" d="M229.6,790.2h-93.4c49.3-220,98.3-439.1,147.5-658.9h89.9c-48.1,219.9-96,439.2-144.1,658.9Z"/></svg>